<svg xmlns="http://www.w3.org/2000/svg" width="32" height="32"><path style="line-height:normal;text-indent:0;text-align:start;text-decoration-line:none;text-decoration-style:solid;text-decoration-color:#000;text-transform:none;block-progression:tb;white-space:normal;isolation:auto;mix-blend-mode:normal;solid-color:#000;solid-opacity:1" d="M20.908.014a.5.5 0 0 0-.058.01c-.804.129-1.579.4-2.284.804-2.24 1.297-3.473 3.718-3.384 6.211A6.525 6.525 0 0 0 10.027 4.5a.5.5 0 0 0-.002 0c-.774 0-1.54.145-2.265.418a.5.5 0 0 0-.322.523c.374 3.334 3.175 5.863 6.503 5.866a.5.5 0 0 0 .002 0c.537 0 1.071-.074 1.59-.207v5.89H8.785a.795.795 0 0 0-.785.787V20.2c0 .427.357.787.785.787h.344l1.225 11.004h11.31l1.227-11.004h.324c.428 0 .785-.36.785-.787v-2.422a.795.795 0 0 0-.785-.787h-6.682v-1.326c.32.071.646.12.975.121a.5.5 0 0 0 .002 0c2.312 0 4.267-1.727 4.53-4.008a.5.5 0 0 0-.325-.527 4.603 4.603 0 0 0-1.576-.283.5.5 0 0 0-.002 0 4.568 4.568 0 0 0-3.604 1.758v-2.272a.5.5 0 0 0 0-.076v-.492a6.728 6.728 0 0 0 2.059-.76.5.5 0 0 0 .002 0c3.024-1.75 4.22-5.55 2.793-8.81a.5.5 0 0 0-.479-.3V.015zm-.332 1.144c.948 2.704-.036 5.68-2.484 7.098-.326.186-.68.301-1.041.402l2.441-3.203a.5.5 0 0 0-.426-.809.5.5 0 0 0-.37.204l-2.339 3.072c-.485-2.45.521-4.961 2.707-6.229.467-.267.99-.407 1.512-.535zM10.027 5.5h.002c2.313 0 4.272 1.46 5.084 3.547l-2.879-1.53a.5.5 0 0 0-.24-.062.5.5 0 0 0-.228.945l3.263 1.735c-.357.092-.717.17-1.088.172-2.665 0-4.864-1.933-5.377-4.537.48-.136.964-.268 1.463-.27zm10.11 6.467h.002c.233 0 .455.077.683.123-.403 1.524-1.668 2.693-3.31 2.695-.08 0-.158-.017-.237-.031l1.573-.93a.5.5 0 0 0-.237-.933v.002a.5.5 0 0 0-.271.07l-1.047.619c.605-.963 1.619-1.614 2.844-1.615zM9 17.99h14v1.994H9.016v.002H9V17.99zm1.133 2.996h11.752L20.77 30.99h-9.522l-1.115-10.004z" color="#000" enable-background="accumulate" font-family="sans-serif" font-weight="400" overflow="visible"/></svg>